<?xml version="1.0" encoding="utf-8"?>

<svg xmlns="http://www.w3.org/2000/svg" height="512pt" viewBox="0 0 512 512" width="512pt">
  <path style="fill:#1890FF;" d="m165.011719 180.523438c-64.378907-10.753907-128.347657 23.683593-154.34375 84.339843l-10.667969 24.890625 88.203125 17.640625-22.359375 37.261719 20.703125 20.699219c-4.550781 2.179687-8.746094 5.132812-12.417969 8.804687-9.765625 9.765625-6.722656 10-63.65625 127.320313 118.476563-57.492188 117.722656-54.058594 127.320313-63.65625 3.71875-3.71875 6.644531-7.9375 8.785156-12.433594l20.722656 20.71875 37.261719-22.355469 17.640625 88.203125 24.890625-10.667969c60.660156-26 95.09375-89.980468 84.335938-154.355468 105.902343-71.820313 180.019531-200.808594 180.511718-331.871094l.058594-15.0625h-15.0625c-129.6875.00390625-258.832031 72.5625-331.925781 180.523438zm-122.421875 87.140624c20.757812-38.734374 61.707031-61.363281 104.828125-58.960937l-42.820313 71.363281zm77.195312 46.046876 28.621094 28.617187-21.222656 21.222656-23.546875-23.546875 15.816406-26.359375zm-3.210937 102.890624c-3.21875 3.21875-2.902344 2.039063-42.453125 21.234376 19.195312-39.550782 18.011718-39.238282 21.230468-42.453126 5.863282-5.863281 15.351563-5.867187 21.21875-.003906 5.847657 5.851563 5.851563 15.375.003907 21.222656zm55.378906-8.28125-23.546875-23.550781 21.21875-21.21875 28.621094 28.617188.066406.335937zm72.335937 61.046876-12.398437-62.011719 71.363281-42.816407c2.402344 43.121094-20.230468 84.070313-58.964844 104.828126zm53.964844-136.828126-73.25 43.949219-34.15625-34.160156 63.664063-63.664063-21.222657-21.21875-63.664062 63.664063-34.15625-34.160156 43.949219-73.25c39.992187-66.65625 102.691406-120.035157 173.515625-151.71875l96.855468 96.859375c-31.722656 71.019531-85.054687 133.808594-151.535156 173.699218zm163.601563-204.074218-78.554688-78.558594c31.972657-11.15625 65.117188-17.902344 98.199219-19.515625-1.71875 33.054687-8.507812 66.152344-19.644531 98.074219zm0 0"/>
  <path style="fill:#1890FF;" d="m350.007812 161.949219c-23.402343-23.402344-61.480468-23.402344-84.886718 0-23.402344 23.402343-23.402344 61.480469 0 84.882812 23.402344 23.402344 61.480468 23.40625 84.886718 0 23.457032-23.457031 23.460938-61.425781 0-84.882812zm-21.222656 63.664062c-11.703125 11.703125-30.738281 11.699219-42.441406 0-11.703125-11.703125-11.703125-30.742187 0-42.441406 11.699219-11.703125 30.738281-11.703125 42.441406 0 11.730469 11.726563 11.730469 30.710937 0 42.441406zm0 0"/>
</svg>
